:version 1.10
:name ASF
:units
  mass 1
  length 1
  angle deg
:documentation
  ASF file generated by Kaydara
:root
  axis xyz
  order  tx ty tz rx ry rz
  position 0 0 0
  orientation 0 0 0
:bonedata
  begin
    id 1
    name lfemurDummy
    direction 0.61522 -0.761478 0.204097
    length 5.68318
    axis 0 -0 0 xyz
  end
  begin
    id 2
    name lfemur
    direction 0.34202 -0.939693 -5.84747e-008
    length 16.9147
    axis 0 -0 20 xyz
    dof rx ry rz
    limits( -inf , inf )
( -inf , inf )
( -inf , inf )

  end
  begin
    id 3
    name ltibia
    direction 0.34202 -0.939693 1.20839e-009
    length 18.0532
    axis 0 -0 20 xyz
    dof rz ry rx
    limits( -inf , inf )
( -inf , inf )
( -inf , inf )

  end
  begin
    id 4
    name lfoot
    direction 0.0841971 -0.23133 0.969225
    length 5.23822
    axis -90 7.62852e-016 20 xyz
    dof ry rx rz
    limits( -inf , inf )
( -inf , inf )
( -inf , inf )

  end
  begin
    id 5
    name ltoes
    direction 0 0 0
    length 0
    axis 0 0 0 xyz
    dof rz ry rx
    limits( -inf , inf )
( -inf , inf )
( -inf , inf )

  end
  begin
    id 6
    name rfemurDummy
    direction -0.625247 -0.75382 0.202044
    length 5.74091
    axis 0 -0 0 xyz
  end
  begin
    id 7
    name rfemur
    direction -0.34202 -0.939693 -1.47013e-008
    length 16.4922
    axis 0 -0 -20 xyz
    dof rx ry rz
    limits( -inf , inf )
( -inf , inf )
( -inf , inf )

  end
  begin
    id 8
    name rtibia
    direction -0.34202 -0.939693 -7.74345e-010
    length 18.2421
    axis 0 -0 -20 xyz
    dof rz ry rx
    limits( -inf , inf )
( -inf , inf )
( -inf , inf )

  end
  begin
    id 9
    name rfoot
    direction -0.124331 -0.341598 0.931586
    length 5.45787
    axis -90 -7.62852e-016 -20 xyz
    dof ry rx rz
    limits( -inf , inf )
( -inf , inf )
( -inf , inf )

  end
  begin
    id 10
    name rtoes
    direction 0 0 0
    length 0
    axis 0 0 0 xyz
    dof rz ry rx
    limits( -inf , inf )
( -inf , inf )
( -inf , inf )

  end
  begin
    id 11
    name lowerbackDummy
    direction 0 0 0
    length 0
    axis 0 -0 0 xyz
  end
  begin
    id 12
    name lowerback
    direction -0.0218484 0.994884 -0.0986304
    length 4.45607
    axis 0 -0 0 xyz
    dof rx ry rz
    limits( -inf , inf )
( -inf , inf )
( -inf , inf )

  end
  begin
    id 13
    name upperback
    direction -0.00973057 0.999717 -0.0217111
    length 4.47449
    axis 0 -0 0 xyz
    dof rx ry rz
    limits( -inf , inf )
( -inf , inf )
( -inf , inf )

  end
  begin
    id 14
    name thorax
    direction -0.000928171 0.999699 0.0245198
    length 4.50973
    axis 0 -0 0 xyz
    dof rx ry rz
    limits( -inf , inf )
( -inf , inf )
( -inf , inf )

  end
  begin
    id 15
    name rclavicle
    direction -0.9009 0.425937 -0.0834055
    length 7.28587
    axis 0 -0 0 xyz
    dof rx ry rz
    limits( -inf , inf )
( -inf , inf )
( -inf , inf )

  end
  begin
    id 16
    name rhumerus
    direction -1 -2.23604e-007 -1.42637e-007
    length 13.5704
    axis 180 30 90 xyz
    dof rx ry rz
    limits( -inf , inf )
( -inf , inf )
( -inf , inf )

  end
  begin
    id 17
    name rradius
    direction -1 5.68281e-008 -4.4952e-007
    length 8.06782
    axis 180 30 90 xyz
    dof rz ry rx
    limits( -inf , inf )
( -inf , inf )
( -inf , inf )

  end
  begin
    id 18
    name rwrist
    direction -1 1.51393e-007 1.38143e-007
    length 4.03391
    axis -90 -90 0 xyz
    dof rz rx ry
    limits( -inf , inf )
( -inf , inf )
( -inf , inf )

  end
  begin
    id 19
    name rthumb
    direction 0 0 0
    length 0
    axis 0 0 0 xyz
    dof ry rx rz
    limits( -inf , inf )
( -inf , inf )
( -inf , inf )

  end
  begin
    id 20
    name rhand
    direction -1 -3.34077e-007 -5.59631e-007
    length 1.29744
    axis -90 -90 0 xyz
    dof ry rx rz
    limits( -inf , inf )
( -inf , inf )
( -inf , inf )

  end
  begin
    id 21
    name rfingers
    direction 0 0 0
    length 0
    axis 0 0 0 xyz
    dof rz ry rx
    limits( -inf , inf )
( -inf , inf )
( -inf , inf )

  end
  begin
    id 22
    name lclavicle
    direction 0.940017 0.332249 -0.0773232
    length 8.29589
    axis 0 -0 0 xyz
    dof rx ry rz
    limits( -inf , inf )
( -inf , inf )
( -inf , inf )

  end
  begin
    id 23
    name lhumerus
    direction 1 7.41158e-008 -1.44768e-008
    length 12.0042
    axis 180 -30 -90 xyz
    dof rx ry rz
    limits( -inf , inf )
( -inf , inf )
( -inf , inf )

  end
  begin
    id 24
    name lradius
    direction 1 -1.32972e-007 3.10821e-007
    length 8.1902
    axis 180 -30 -90 xyz
    dof rz ry rx
    limits( -inf , inf )
( -inf , inf )
( -inf , inf )

  end
  begin
    id 25
    name lwrist
    direction 1 3.08957e-007 4.01394e-007
    length 4.09509
    axis -90 90 0 xyz
    dof rz rx ry
    limits( -inf , inf )
( -inf , inf )
( -inf , inf )

  end
  begin
    id 26
    name lthumb
    direction 0 0 0
    length 0
    axis 0 0 0 xyz
    dof ry rx rz
    limits( -inf , inf )
( -inf , inf )
( -inf , inf )

  end
  begin
    id 27
    name lhand
    direction 1 -1.64125e-007 -6.99514e-007
    length 1.37229
    axis -90 90 0 xyz
    dof ry rx rz
    limits( -inf , inf )
( -inf , inf )
( -inf , inf )

  end
  begin
    id 28
    name lfingers
    direction 0 0 0
    length 0
    axis 0 0 0 xyz
    dof rz ry rx
    limits( -inf , inf )
( -inf , inf )
( -inf , inf )

  end
  begin
    id 29
    name lowerneck
    direction -0.030798 0.998024 0.0547665
    length 3.93918
    axis 0 -0 0 xyz
    dof rx ry rz
    limits( -inf , inf )
( -inf , inf )
( -inf , inf )

  end
  begin
    id 30
    name upperneck
    direction 0.0531588 0.996611 -0.0627736
    length 3.95491
    axis 0 -0 0 xyz
    dof rx ry rz
    limits( -inf , inf )
( -inf , inf )
( -inf , inf )

  end
  begin
    id 31
    name head
    direction 0 0 0
    length 0
    axis 0 0 0 xyz
    dof rx ry rz
    limits( -inf , inf )
( -inf , inf )
( -inf , inf )

  end
:hierarchy
  begin
    root lfemurDummy rfemurDummy lowerbackDummy
    lfemurDummy lfemur
    lfemur ltibia
    ltibia lfoot
    lfoot ltoes
    rfemurDummy rfemur
    rfemur rtibia
    rtibia rfoot
    rfoot rtoes
    lowerbackDummy lowerback
    lowerback upperback
    upperback thorax
    thorax rclavicle lclavicle lowerneck
    rclavicle rhumerus
    rhumerus rradius
    rradius rwrist
    rwrist rthumb rhand
    rhand rfingers
    lclavicle lhumerus
    lhumerus lradius
    lradius lwrist
    lwrist lthumb lhand
    lhand lfingers
    lowerneck upperneck
    upperneck head
  end

:SAMPLES-PER-SECOND 30
:FULLY-SPECIFIED
:DEGREES
48
root  -5.930933239 36.70444338 8.349777582 13.00402832 -52.44300079 -10.83398438
lowerback  10.19089985 2.958240032 -7.304480076
upperback  0.8478410244 2.667710066 -5.655079842
thorax  -4.907519817 1.351729989 -2.219660044
lowerneck  -6.054759979 4.423079967 -12.18490028
upperneck  15.41919994 5.295110226 14.1552
head  4.797560215 2.816380024 6.800529957
lclavicle  0 -9.442270133e-015 7.951389973e-016
lhumerus  35.13069916 -36.33520126 54.67819977
lradius  4.959290684e-032 -3.496126199e-031 98.07360077
lwrist  -7.062250077e-031 -1.765562519e-031 15.00800037
lhand  -1.496451383e-031 -27.76390076 20.11240005
lfingers  90 7.125020027 -90
lthumb  89.89689403 5.08795885 91.16245106
rclavicle  0 -9.442270133e-015 7.951389973e-016
rhumerus  -3.263730049 13.27680016 -40.59529877
rradius  -2.221203226e-031 2.745013709e-031 128.9790039
rwrist  0 -1.765562519e-031 -11.94260025
rhand  -7.920061211e-032 -33.2840004 9.303460121
rfingers  -90 -7.125020027 -90
rthumb  -92.93752616 -24.25625642 -97.11982154
rfemur  12.90750027 4.721459866 26.88080025
rtibia  -0 0 47.51810074
rfoot  -4.520657886e-032 12.4762001 5.151599884
rtoes  5.373923086 19.29304026 -105.8922705
lfemur  -52.53369904 -15.8920002 6.11055994
ltibia  -0 0 52.29639816
lfoot  4.437794931e-032 -5.947639942 -2.698790073
ltoes  -4.250644065 -19.5611806 -102.515957
49
root  -6.067377751 36.67466772 8.335955312 13.42297363 -51.1210022 -10.46899414
lowerback  9.824790001 3.614069939 -6.863890171
upperback  1.057279944 3.599720001 -6.319890022
thorax  -4.427509785 1.782559991 -3.268419981
lowerneck  -5.863689899 3.73326993 -12.39659977
upperneck  15.39190006 4.339109898 14.29150009
head  4.880080223 2.342329979 6.849239826
lclavicle  0 -9.442270133e-015 7.951389973e-016
lhumerus  32.62490082 -38.35409927 55.82220078
lradius  6.571258343e-032 -3.469442271e-031 100.7249985
lwrist  -1.412450015e-030 -0 13.86450005
lhand  -1.496451383e-031 -27.76390076 20.11240005
lfingers  90 7.125020027 -90
lthumb  89.89689403 5.08795885 91.16245106
rclavicle  0 -9.442270133e-015 7.951389973e-016
rhumerus  3.469290018 11.29249954 -36.11090088
rradius  -2.052691603e-031 2.873203999e-031 125.5429993
rwrist  7.062250077e-031 -0 -9.743430138
rhand  -7.920061211e-032 -33.2840004 9.303460121
rfingers  -90 -7.125020027 -90
rthumb  -92.93752616 -24.25625642 -97.11982154
rfemur  11.24740028 3.084470034 27.57509995
rtibia  -0 0 48.31330109
rfoot  -4.495911023e-032 10.96000004 3.237129927
rtoes  5.373923086 19.29304026 -105.8922705
lfemur  -53.89419937 -15.74269962 6.240650177
ltibia  -0 0 52.46640015
lfoot  4.434052018e-032 -5.463779926 -3.605839968
ltoes  -4.250644065 -19.5611806 -102.515957
50
root  -6.186777776 36.63022199 8.321799631 13.99798584 -50.04200745 -10.52801514
lowerback  9.667440414 4.265820026 -5.982570171
upperback  1.310960054 4.55851984 -6.961870193
thorax  -3.945950031 2.230040073 -4.540550232
lowerneck  -5.779379845 3.16531992 -12.4435997
upperneck  15.46150017 3.574140072 14.14900017
head  4.999639988 1.955819964 6.787950039
lclavicle  0 -9.442270133e-015 7.951389973e-016
lhumerus  30.07489967 -39.62559891 56.92879868
lradius  7.93429557e-032 -3.440830361e-031 102.9850006
lwrist  -7.062250077e-031 -0 13.91989994
lhand  -1.496451383e-031 -27.76390076 20.11240005
lfingers  90 7.125020027 -90
lthumb  89.89689403 5.08795885 91.16245106
rclavicle  0 -9.442270133e-015 7.951389973e-016
rhumerus  10.31470013 9.070969582 -32.0469017
rradius  -1.778942113e-031 3.050280151e-031 120.2509995
rwrist  1.412450015e-030 -1.765562519e-031 -7.564559937
rhand  -7.920061211e-032 -33.2840004 9.303460121
rfingers  -90 -7.125020027 -90
rthumb  -92.93752616 -24.25625642 -97.11982154
rfemur  9.887499809 1.939929962 28.57749939
rtibia  -0 0 48.82339859
rfoot  -4.477619408e-032 9.677089691 0.6310279965
rtoes  5.373923086 19.29304026 -105.8922705
lfemur  -54.95420074 -15.30360031 6.503149986
ltibia  -0 0 52.68579865
lfoot  4.427724143e-032 -4.527729988 -4.612390041
ltoes  -4.250644065 -19.5611806 -102.515957
51
root  -6.308444466 36.62555424 8.312799799 14.54998779 -49.27799988 -10.86102295
lowerback  9.772199631 4.905069828 -4.718510151
upperback  1.56190002 5.513850212 -7.638720036
thorax  -3.519589901 2.684540033 -6.079659939
lowerneck  -5.143020153 2.716399908 -12.59889984
upperneck  15.03100014 2.961800098 14.01760006
head  4.846930027 1.624709964 6.71765995
lclavicle  0 -9.442270133e-015 7.951389973e-016
lhumerus  27.30270004 -40.59019852 58.13290024
lradius  8.856147759e-032 -3.418264253e-031 104.5250015
lwrist  0 1.765562519e-031 13.14050007
lhand  -1.496451383e-031 -27.76390076 20.11240005
lfingers  90 7.125020027 -90
lthumb  89.89689403 5.08795885 91.16245106
rclavicle  0 -9.442270133e-015 7.951389973e-016
rhumerus  16.68260002 6.934929848 -28.51799965
rradius  -1.388678469e-031 3.246600706e-031 113.1579971
rwrist  1.412450015e-030 -0 -5.642700195
rhand  -7.920061211e-032 -33.2840004 9.303460121
rfingers  -90 -7.125020027 -90
rthumb  -92.93752616 -24.25625642 -97.11982154
rfemur  8.845000267 0.7745519876 29.38089943
rtibia  -0 0 49.20600128
rfoot  -5.593252848e-032 9.447839737 -1.604750037
rtoes  5.373923086 19.29304026 -105.8922705
lfemur  -55.54240036 -14.71899986 6.743750095
ltibia  -0 0 52.90570068
lfoot  4.424146662e-032 -3.899100065 -5.677350044
ltoes  -4.250644065 -19.5611806 -102.515957
